<svg width="97" height="98" viewBox="0 0 97 98" fill="none" xmlns="http://www.w3.org/2000/svg">
<circle cx="49" cy="49.3218" r="47" fill="#E51D29"/>
<path d="M78.8065 50.2014L87.5237 56.779L87.0104 59.0005L76.2882 61.0999L76.8336 58.7396L86.2346 57.1681L86.0292 58.0566L78.2737 52.5061L78.8065 50.2014ZM80.3884 52.8487L81.9579 53.8401L80.8032 58.8379L78.954 59.0543L80.3884 52.8487ZM88.1575 57.6421L90.7373 55.5911L90.1981 57.9237L87.7658 59.3362L88.1575 57.6421Z" fill="#F9ECD9"/>
<path d="M71.0186 68.262C71.5191 67.6524 72.0765 67.1729 72.6897 66.823C73.3033 66.4725 73.9451 66.256 74.6155 66.1734C75.2853 66.091 75.9491 66.144 76.6053 66.3333C77.2615 66.522 77.8791 66.8546 78.4595 67.3309C79.0388 67.8074 79.4853 68.3493 79.7977 68.9564C80.1105 69.5636 80.2899 70.2058 80.3355 70.8829C80.3816 71.5599 80.2907 72.2359 80.0634 72.909C79.8357 73.5828 79.4687 74.228 78.9617 74.8442C78.4011 75.5268 77.7822 76.0479 77.1053 76.4077C76.4286 76.7674 75.7199 76.9568 74.9796 76.975L74.8635 74.9621C75.3863 74.9239 75.8547 74.799 76.2695 74.5865C76.6839 74.3737 77.051 74.073 77.3705 73.6836C77.6783 73.3098 77.8996 72.9203 78.0354 72.5154C78.1711 72.1105 78.2213 71.7059 78.1849 71.3012C78.1489 70.8958 78.0297 70.5093 77.8287 70.141C77.627 69.7729 77.3426 69.4378 76.9758 69.1361C76.6164 68.8406 76.2363 68.6301 75.8357 68.504C75.435 68.3776 75.0312 68.3346 74.6237 68.3743C74.2153 68.4139 73.8276 68.5382 73.4601 68.7465C73.0925 68.9542 72.7579 69.2416 72.4561 69.609C72.1664 69.9615 71.9417 70.3508 71.781 70.7782C71.6206 71.2056 71.5462 71.6888 71.5588 72.2273L69.4384 72.1821C69.4661 71.5043 69.6237 70.8187 69.9102 70.1263C70.1967 69.434 70.566 68.8122 71.0186 68.262ZM71.0079 70.7431L73.9038 73.122L72.5645 74.7515L69.4382 72.1827L71.0079 70.7431Z" fill="#F9ECD9"/>
<path d="M68.7826 71.5519L70.2167 82.3777L68.2742 83.5713L59.2525 77.4078L61.3164 76.1396L69.0345 81.7327L68.2572 82.2102L66.7676 72.7908L68.7826 71.5519ZM68.008 74.537L68.4038 76.3509L64.0332 79.0363L62.5812 77.8711L68.008 74.537Z" fill="#F9ECD9"/>
<path d="M54.669 78.06C55.4364 77.8782 56.1698 77.834 56.8701 77.9266C57.5709 78.0191 58.2128 78.236 58.7962 78.5762C59.3795 78.9163 59.8752 79.3602 60.2827 79.9083C60.6904 80.4556 60.9808 81.0949 61.1538 81.8253C61.3267 82.5551 61.3541 83.2564 61.235 83.9289C61.1159 84.6013 60.8698 85.2213 60.4964 85.7877C60.1231 86.3541 59.6417 86.8369 59.0525 87.235C58.4639 87.6333 57.7811 87.9244 57.0042 88.1081C56.1445 88.3118 55.337 88.3515 54.5803 88.2285C53.8236 88.1051 53.145 87.8265 52.5445 87.3928L53.6716 85.72C54.1101 86.0065 54.5592 86.1908 55.0176 86.2725C55.4761 86.3542 55.9509 86.3371 56.4404 86.2209C56.9121 86.1096 57.3242 85.9336 57.6771 85.6941C58.0306 85.4541 58.3153 85.1625 58.5318 84.8186C58.7482 84.4741 58.8875 84.0943 58.9504 83.6798C59.013 83.2647 58.9896 82.8259 58.8803 82.3638C58.7728 81.9106 58.5981 81.5129 58.3559 81.1701C58.1137 80.8274 57.8184 80.5479 57.4694 80.3328C57.121 80.1175 56.737 79.9815 56.3185 79.9249C55.8997 79.8675 55.4597 79.894 54.9977 80.0034C54.5537 80.1084 54.1388 80.2823 53.7516 80.525C53.365 80.7676 53.0135 81.1072 52.6969 81.5435L51.0371 80.2235C51.4701 79.7006 52.0099 79.2507 52.6577 78.8732C53.3051 78.4955 53.9754 78.2242 54.669 78.06ZM53.1579 80.0285L54.0215 83.6751L51.9694 84.1611L51.0373 80.2231L53.1579 80.0285Z" fill="#F9ECD9"/>
<path d="M49.5541 79.244L48.4558 89.1575L46.5581 88.9474L41.4996 81.1611L42.4203 81.2633L41.6294 88.4011L39.3636 88.1501L40.4619 78.2367L42.3455 78.4451L47.4179 86.2325L46.4973 86.1306L47.2882 78.9928L49.5541 79.244Z" fill="#F9ECD9"/>
<path d="M36.2019 78.4088L31.2689 76.142L32.0424 74.4593L39.0596 77.6843L34.8947 86.7474L28.0457 83.5999L28.8191 81.9167L33.5836 84.1064L36.2019 78.4088ZM34.6439 82.2095L30.2807 80.2039L31.0306 78.5729L35.3936 80.578L34.6439 82.2095Z" fill="#F9ECD9"/>
<path d="M31.1462 73.8558L24.4509 81.2486L21.2509 78.3506C20.5892 77.7518 20.1161 77.1276 19.8317 76.479C19.5472 75.8304 19.4566 75.1883 19.5595 74.5505C19.6625 73.9136 19.9658 73.3163 20.4693 72.7604C20.9666 72.211 21.5261 71.8557 22.1466 71.6937C22.7673 71.5319 23.4128 71.562 24.0828 71.7842C24.7529 72.0064 25.419 72.4174 26.0809 73.0167L28.3305 75.0537L26.8911 75.1151L29.4353 72.3057L31.1462 73.8558ZM27.0633 74.9257L27.0967 76.4171L24.9421 74.4657C24.414 73.9876 23.916 73.7449 23.4483 73.7378C22.9806 73.7306 22.5651 73.9279 22.2015 74.3294C21.8317 74.7377 21.6751 75.1726 21.7314 75.6338C21.7879 76.0947 22.08 76.5642 22.6082 77.0428L24.7627 78.9937L23.2656 79.1183L27.0633 74.9257ZM26.4461 69.5995L25.8651 73.9563L24.0379 72.3015L24.5976 67.9258L26.4461 69.5995Z" fill="#F9ECD9"/>
<path d="M8.4509 40.1821L5.87113 42.233L6.4101 39.9006L8.84242 38.4883L8.4509 40.1821ZM17.8022 47.6226L9.08504 41.0453L9.59816 38.8239L20.3206 36.7245L19.7752 39.0847L10.3742 40.656L10.5795 39.7675L18.3347 45.318L17.8022 47.6226ZM16.2203 44.9754L14.6505 43.9838L15.8055 38.9859L17.6544 38.7696L16.2203 44.9754Z" fill="#F9ECD9"/>
<path d="M25.5894 29.5602C25.0886 30.1695 24.5314 30.649 23.918 30.9992C23.3044 31.3497 22.6626 31.5662 21.9924 31.6485C21.3224 31.731 20.6588 31.6779 20.0027 31.4889C19.3465 31.3002 18.7286 30.9676 18.1484 30.491C17.5689 30.0146 17.1226 29.4726 16.8099 28.8656C16.4972 28.2586 16.3181 27.6164 16.2722 26.9391C16.2264 26.262 16.3171 25.5863 16.5446 24.9129C16.7721 24.2395 17.1393 23.5941 17.6459 22.9778C18.2069 22.2953 18.8257 21.774 19.5024 21.4143C20.179 21.0546 20.8877 20.8652 21.6283 20.8469L21.7445 22.86C21.2216 22.898 20.7533 23.0229 20.3385 23.2356C19.9237 23.4483 19.557 23.7492 19.2374 24.1383C18.9297 24.5124 18.7081 24.902 18.5723 25.3066C18.4365 25.7115 18.3867 26.1163 18.4228 26.5211C18.459 26.9261 18.5782 27.3126 18.7793 27.6809C18.9807 28.0493 19.265 28.3842 19.6321 28.6858C19.9915 28.9813 20.3717 29.192 20.772 29.3183C21.1727 29.4446 21.5766 29.4876 21.9843 29.4479C22.3924 29.408 22.7801 29.284 23.1476 29.0758C23.5151 28.8678 23.8497 28.5804 24.1516 28.2133C24.4413 27.8608 24.6663 27.4711 24.8266 27.0438C24.9873 26.6166 25.0616 26.1334 25.0491 25.5947L27.1696 25.6401C27.1415 26.3177 26.9843 27.0032 26.6978 27.6958C26.4109 28.388 26.0417 29.0098 25.5894 29.5602ZM25.5997 27.0789L22.7041 24.6999L24.0431 23.0705L27.1698 25.6395L25.5997 27.0789Z" fill="#F9ECD9"/>
<path d="M27.8252 26.273L26.3914 15.4471L28.334 14.2537L37.3554 20.4173L35.2915 21.6855L27.5736 16.0923L28.3506 15.6149L29.8403 25.0346L27.8252 26.273ZM28.6001 23.2878L28.2045 21.4738L32.5751 18.7884L34.0269 19.9537L28.6001 23.2878Z" fill="#F9ECD9"/>
<path d="M41.9377 19.7617C41.1702 19.9435 40.4366 19.9877 39.7363 19.8951C39.0355 19.8026 38.3939 19.5858 37.8105 19.2457C37.2272 18.9055 36.7315 18.4616 36.3237 17.9136C35.916 17.3661 35.6256 16.7271 35.4526 15.9967C35.2797 15.2666 35.2526 14.5652 35.3717 13.8927C35.4908 13.2203 35.7367 12.6006 36.1103 12.0342C36.4835 11.4672 36.9647 10.9848 37.5539 10.5866C38.1428 10.1886 38.8257 9.8975 39.6022 9.71355C40.462 9.51012 41.2697 9.47014 42.0264 9.59334C42.7829 9.71687 43.4615 9.99546 44.0619 10.4292L42.9351 12.1019C42.4963 11.8152 42.0476 11.631 41.5887 11.5492C41.1303 11.4675 40.6558 11.4848 40.1663 11.6007C39.6946 11.7123 39.2825 11.8883 38.9293 12.1276C38.5761 12.3677 38.2911 12.6594 38.0749 13.0033C37.8585 13.3475 37.7191 13.7273 37.6564 14.1421C37.5937 14.5572 37.6171 14.996 37.7264 15.4581C37.8336 15.911 38.0083 16.309 38.2505 16.6518C38.4928 16.9948 38.7882 17.2737 39.1372 17.4888C39.4857 17.7041 39.8694 17.8404 40.288 17.897C40.7067 17.9542 41.147 17.9279 41.6091 17.8185C42.053 17.7135 42.4679 17.5396 42.8547 17.2967C43.2414 17.0541 43.5929 16.7145 43.9095 16.2782L45.5693 17.5985C45.1363 18.121 44.5962 18.571 43.9488 18.9487C43.3013 19.3265 42.6308 19.5978 41.9377 19.7617ZM43.4483 17.7935L42.5847 14.1469L44.6369 13.6612L45.5692 17.5991L43.4483 17.7935Z" fill="#F9ECD9"/>
<path d="M47.0563 18.5788L48.1546 8.66536L50.052 8.87552L55.1104 16.6616L54.19 16.5595L54.9807 9.4218L57.2468 9.67275L56.1485 19.5862L54.2648 19.3775L49.1927 11.59L50.1133 11.692L49.3226 18.8297L47.0563 18.5788Z" fill="#F9ECD9"/>
<path d="M60.4069 19.416L65.3397 21.6829L64.5662 23.3658L57.5493 20.1408L61.7142 11.0777L68.5632 14.2252L67.7898 15.9084L63.025 13.7188L60.4069 19.416ZM61.9653 15.6155L66.3284 17.6208L65.5785 19.2521L61.2155 17.247L61.9653 15.6155Z" fill="#F9ECD9"/>
<path d="M65.4623 23.9686L72.1575 16.5756L75.3578 19.4735C76.0196 20.0726 76.4927 20.6967 76.777 21.3451C77.0614 21.9937 77.1521 22.636 77.0492 23.2735C76.9463 23.911 76.6429 24.5078 76.1395 25.064C75.6421 25.6131 75.0829 25.9686 74.4622 26.1307C73.8415 26.2927 73.1959 26.2623 72.5262 26.0401C71.8561 25.8176 71.1897 25.4067 70.5281 24.8075L68.2785 22.7704L69.7179 22.7092L67.1737 25.5185L65.4623 23.9686ZM70.1627 28.2251L70.7434 23.8684L72.5709 25.5231L72.0109 29.8989L70.1627 28.2251ZM69.5455 22.8989L69.5119 21.4075L71.6664 23.3587C72.1946 23.837 72.6925 24.0795 73.1602 24.0867C73.6279 24.0938 74.0437 23.8967 74.4071 23.4953C74.7766 23.087 74.9332 22.6522 74.8771 22.1909C74.8205 21.7297 74.5285 21.2602 74.0003 20.7819L71.8458 18.8307L73.3428 18.7062L69.5455 22.8989Z" fill="#F9ECD9"/>
<circle cx="82" cy="37.3218" r="2" fill="#F9ECD9"/>
<circle cx="16" cy="59.3218" r="2" fill="#F9ECD9"/>
<path d="M61 47.0005C61.2652 47.0005 61.5196 46.8951 61.7071 46.7076C61.8946 46.5201 62 46.2657 62 46.0005V41.0005C62 40.4701 61.7893 39.9613 61.4142 39.5863C61.0391 39.2112 60.5304 39.0005 60 39.0005H36C35.4696 39.0005 34.9609 39.2112 34.5858 39.5863C34.2107 39.9613 34 40.4701 34 41.0005V46.0005C34 46.2657 34.1054 46.5201 34.2929 46.7076C34.4804 46.8951 34.7348 47.0005 35 47.0005C35.5304 47.0005 36.0391 47.2112 36.4142 47.5863C36.7893 47.9613 37 48.4701 37 49.0005C37 49.5309 36.7893 50.0396 36.4142 50.4147C36.0391 50.7898 35.5304 51.0005 35 51.0005C34.7348 51.0005 34.4804 51.1058 34.2929 51.2934C34.1054 51.4809 34 51.7353 34 52.0005V57.0005C34 57.5309 34.2107 58.0396 34.5858 58.4147C34.9609 58.7898 35.4696 59.0005 36 59.0005H60C60.5304 59.0005 61.0391 58.7898 61.4142 58.4147C61.7893 58.0396 62 57.5309 62 57.0005V52.0005C62 51.7353 61.8946 51.4809 61.7071 51.2934C61.5196 51.1058 61.2652 51.0005 61 51.0005C60.4696 51.0005 59.9609 50.7898 59.5858 50.4147C59.2107 50.0396 59 49.5309 59 49.0005C59 48.4701 59.2107 47.9613 59.5858 47.5863C59.9609 47.2112 60.4696 47.0005 61 47.0005ZM60 52.8705V57.0005H53V54.0005H51V57.0005H36V52.8705C36.856 52.6468 37.6137 52.1455 38.1544 51.4453C38.6952 50.745 38.9885 49.8852 38.9885 49.0005C38.9885 48.1157 38.6952 47.256 38.1544 46.5557C37.6137 45.8554 36.856 45.3542 36 45.1305V41.0005H51V44.0005H53V41.0005H60V45.1305C59.144 45.3542 58.3863 45.8554 57.8456 46.5557C57.3048 47.256 57.0115 48.1157 57.0115 49.0005C57.0115 49.8852 57.3048 50.745 57.8456 51.4453C58.3863 52.1455 59.144 52.6468 60 52.8705Z" fill="#F9ECD9"/>
<path d="M51 46.0005H53V52.0005H51V46.0005Z" fill="#F9ECD9"/>
</svg>
