<svg width="55" height="56" viewBox="0 0 55 56" fill="none" xmlns="http://www.w3.org/2000/svg">
<circle cx="27.5" cy="28.0933" r="26.7237" stroke="#2170B7" stroke-width="1.55267"/>
<path d="M28.5 23.0034C31.6992 23.0034 34.3398 25.644 34.3398 28.8433C34.3398 32.0933 31.6992 34.6831 28.5 34.6831C25.25 34.6831 22.6602 32.0933 22.6602 28.8433C22.6602 25.644 25.25 23.0034 28.5 23.0034ZM28.5 32.6519C30.582 32.6519 32.2578 30.9761 32.2578 28.8433C32.2578 26.7612 30.582 25.0854 28.5 25.0854C26.3672 25.0854 24.6914 26.7612 24.6914 28.8433C24.6914 30.9761 26.418 32.6519 28.5 32.6519ZM35.9141 22.8003C35.9141 22.0386 35.3047 21.4292 34.543 21.4292C33.7812 21.4292 33.1719 22.0386 33.1719 22.8003C33.1719 23.562 33.7812 24.1714 34.543 24.1714C35.3047 24.1714 35.9141 23.562 35.9141 22.8003ZM39.7734 24.1714C39.875 26.0503 39.875 31.687 39.7734 33.5659C39.6719 35.394 39.2656 36.9683 37.9453 38.3394C36.625 39.6597 35 40.0659 33.1719 40.1675C31.293 40.269 25.6562 40.269 23.7773 40.1675C21.9492 40.0659 20.375 39.6597 19.0039 38.3394C17.6836 36.9683 17.2773 35.394 17.1758 33.5659C17.0742 31.687 17.0742 26.0503 17.1758 24.1714C17.2773 22.3433 17.6836 20.7183 19.0039 19.3979C20.375 18.0776 21.9492 17.6714 23.7773 17.5698C25.6562 17.4683 31.293 17.4683 33.1719 17.5698C35 17.6714 36.625 18.0776 37.9453 19.3979C39.2656 20.7183 39.6719 22.3433 39.7734 24.1714ZM37.3359 35.5464C37.9453 34.0737 37.793 30.519 37.793 28.8433C37.793 27.2183 37.9453 23.6636 37.3359 22.1401C36.9297 21.1753 36.168 20.3628 35.2031 20.0073C33.6797 19.3979 30.125 19.5503 28.5 19.5503C26.8242 19.5503 23.2695 19.3979 21.7969 20.0073C20.7812 20.4136 20.0195 21.1753 19.6133 22.1401C19.0039 23.6636 19.1562 27.2183 19.1562 28.8433C19.1562 30.519 19.0039 34.0737 19.6133 35.5464C20.0195 36.562 20.7812 37.3237 21.7969 37.73C23.2695 38.3394 26.8242 38.187 28.5 38.187C30.125 38.187 33.6797 38.3394 35.2031 37.73C36.168 37.3237 36.9805 36.562 37.3359 35.5464Z" fill="#2170B7"/>
</svg>
